# This file uses centimeters as units for non-parametric coordinates.

mtllib SK_atrium4matt.mtl
g default
v -0.901011 -1.391844 -4.813122
v -6.458727 -1.391844 -4.813123
v -9.237586 -1.391844 -0.000001
v -6.458727 -1.391844 4.813122
v -0.901013 -1.391844 4.813123
v 1.877845 -1.391844 0.000000
v -0.901011 3.743477 -4.813122
v -6.458727 3.743477 -4.813123
v -9.237586 3.743477 -0.000001
v -6.458727 3.743477 4.813122
v -0.901013 3.743477 4.813123
v 1.877845 3.743477 0.000000
v -3.679870 -1.391844 0.000000
v -1.279237 3.743477 -4.485569
v -6.080502 3.743477 -4.485570
v -8.481132 3.743477 -0.000001
v -6.080502 3.743477 4.485570
v -1.279238 3.743477 4.485570
v 1.121394 3.743477 0.000000
v -1.279237 -0.017925 -4.485569
v -6.080502 -0.017925 -4.485570
v -3.679870 -0.017925 0.000000
v -8.481132 -0.017925 -0.000001
v -6.080502 -0.017925 4.485570
v -1.279238 -0.017925 4.485570
v 1.121394 -0.017925 0.000000
v -4.602466 -0.150808 4.813122
v -2.757273 -0.150808 4.813123
v -2.757273 2.502442 4.813123
v -4.602466 2.502442 4.813122
v -2.882846 2.834472 -4.485569
v -4.476893 2.834472 -4.485570
v -4.476893 0.114057 -4.485570
v -2.882846 0.114057 -4.485569
v -4.476893 2.834472 4.485570
v -2.882846 2.834472 4.485570
v -2.882846 0.114057 4.485570
v -4.476893 0.114057 4.485570
v -4.602466 -0.150808 4.813122
v -2.757273 -0.150808 4.813123
v -2.757273 2.502442 4.813123
v -4.602466 2.502442 4.813122
v -4.476893 2.834472 4.485570
v -2.882846 2.834472 4.485570
v -2.882846 0.114057 4.485570
v -4.476893 0.114057 4.485570
v -2.882843 2.834472 -10.670682
v -4.476890 2.834472 -10.670683
v -4.476890 0.114057 -10.670683
v -2.882843 0.114057 -10.670682
vt 0.601562 0.166717
vt 0.419271 0.166717
vt 0.343750 0.156250
vt 0.421875 0.291566
vt 0.578125 0.291566
vt 0.656250 0.156250
vt 0.458333 0.312500
vt 0.500000 0.312500
vt 0.541667 0.312500
vt 0.583333 0.312500
vt 0.419271 0.833753
vt 0.458333 0.688440
vt 0.500000 0.688440
vt 0.541667 0.688440
vt 0.583333 0.688440
vt 0.601562 0.833753
vt 0.578125 0.708434
vt 0.421875 0.708434
vt 0.343750 0.843750
vt 0.656250 0.843750
vt 0.500000 0.150000
vt 0.500000 0.837500
vt 0.578125 0.979066
vt 0.421875 0.979066
vt 0.343750 0.843750
vt 0.421875 0.708434
vt 0.578125 0.708434
vt 0.656250 0.843750
vt 0.578125 0.979066
vt 0.421875 0.979066
vt 0.343750 0.843750
vt 0.421875 0.708434
vt 0.578125 0.708434
vt 0.656250 0.843750
vt 0.500000 0.312500
vt 0.541667 0.312500
vt 0.541667 0.688440
vt 0.500000 0.688440
vt 0.578125 0.979066
vt 0.421875 0.979066
vt 0.421875 0.979066
vt 0.578125 0.979066
vt 0.421875 0.708434
vt 0.578125 0.708434
vt 0.578125 0.708434
vt 0.421875 0.708434
vt 0.500000 0.312500
vt 0.541667 0.312500
vt 0.541667 0.688440
vt 0.500000 0.688440
vt 0.421875 0.708434
vt 0.578125 0.708434
vt 0.578125 0.708434
vt 0.421875 0.708434
vt 0.000000 0.000000
vt 1.000000 0.000000
vt 0.500000 1.000000
vt 0.500000 1.000000
vt 0.000000 0.000000
vt 1.000000 0.000000
vt 0.500000 1.000000
vt 0.000000 0.000000
vt 1.000000 0.000000
vt 0.500000 1.000000
vt 0.000000 0.000000
vt 1.000000 0.000000
vn -0.866025 0.000000 -0.500000
vn -0.866025 0.000000 -0.500000
vn -0.866025 0.000000 -0.500000
vn -0.866025 0.000000 -0.500000
vn -0.866025 0.000000 0.500000
vn -0.866025 0.000000 0.500000
vn -0.866025 0.000000 0.500000
vn -0.866025 0.000000 0.500000
vn -0.000000 0.000000 1.000000
vn -0.000000 0.000000 1.000000
vn -0.000000 0.000000 1.000000
vn -0.000000 0.000000 1.000000
vn 0.866025 0.000000 0.500000
vn 0.866025 0.000000 0.500000
vn 0.866025 0.000000 0.500000
vn 0.866025 0.000000 0.500000
vn 0.866026 0.000000 -0.500000
vn 0.866026 0.000000 -0.500000
vn 0.866026 0.000000 -0.500000
vn 0.866026 0.000000 -0.500000
vn 0.000000 -1.000000 0.000000
vn 0.000000 -1.000000 0.000000
vn 0.000000 -1.000000 0.000000
vn 0.000000 -1.000000 0.000000
vn 0.000000 -1.000000 0.000000
vn 0.000000 -1.000000 0.000000
vn 0.000000 -1.000000 0.000000
vn 0.000000 1.000000 0.000000
vn 0.000000 1.000000 0.000000
vn 0.000000 1.000000 0.000000
vn 0.000000 1.000000 0.000000
vn 0.000000 1.000000 0.000000
vn 0.000000 1.000000 0.000000
vn 0.000000 1.000000 0.000000
vn 0.000000 1.000000 0.000001
vn 0.000000 1.000000 0.000001
vn 0.000000 1.000000 0.000001
vn 0.000000 1.000000 0.000001
vn 0.000000 1.000000 0.000000
vn 0.000000 1.000000 0.000000
vn 0.000000 1.000000 0.000000
vn 0.000000 1.000000 0.000000
vn 0.000000 1.000000 -0.000000
vn 0.000000 1.000000 -0.000000
vn 0.000000 1.000000 -0.000000
vn 0.000000 1.000000 -0.000000
vn 0.000000 1.000000 -0.000000
vn 0.000000 1.000000 -0.000000
vn 0.000000 1.000000 -0.000000
vn 0.000000 1.000000 -0.000000
vn 0.000000 1.000000 0.000000
vn 0.000000 1.000000 0.000000
vn 0.000000 1.000000 0.000000
vn 0.000000 1.000000 0.000000
vn 0.000000 1.000000 0.000000
vn 0.000000 1.000000 0.000000
vn 0.000000 1.000000 0.000000
vn 0.000000 1.000000 0.000000
vn 0.881672 0.000000 0.471862
vn 0.881672 0.000000 0.471862
vn 0.881672 0.000000 0.471862
vn 0.881672 0.000000 0.471862
vn 0.881673 0.000000 -0.471862
vn 0.881673 0.000000 -0.471862
vn 0.881673 0.000000 -0.471862
vn 0.881673 0.000000 -0.471862
vn 0.000000 0.000000 -1.000000
vn 0.000000 0.000000 -1.000000
vn 0.000000 0.000000 -1.000000
vn 0.000000 0.000000 -1.000000
vn -0.881672 0.000000 -0.471862
vn -0.881672 0.000000 -0.471862
vn -0.881672 0.000000 -0.471862
vn -0.881672 0.000000 -0.471862
vn -0.881672 0.000000 0.471862
vn -0.881672 0.000000 0.471862
vn -0.881672 0.000000 0.471862
vn -0.881672 0.000000 0.471862
vn -0.000000 0.000000 1.000000
vn -0.000000 0.000000 1.000000
vn -0.000000 0.000000 1.000000
vn 0.000000 0.000000 1.000000
vn -0.000000 -0.000000 1.000000
vn -0.000000 -0.000000 1.000000
vn -0.000000 -0.000000 1.000000
vn 0.000000 -0.000000 1.000000
vn -0.000000 -0.000000 1.000000
vn -0.000000 -0.000000 1.000000
vn -0.000000 -0.000000 1.000000
vn -0.000000 -0.000000 1.000000
vn -0.000000 0.000000 1.000000
vn -0.000000 0.000000 1.000000
vn -0.000000 0.000000 1.000000
vn -0.000000 0.000000 1.000000
vn 0.000000 0.000000 -1.000000
vn -0.000000 0.000000 -1.000000
vn -0.000000 0.000000 -1.000000
vn 0.000000 0.000000 -1.000000
vn -0.000000 0.000000 -1.000000
vn -0.000000 0.000000 -1.000000
vn 0.000000 0.000000 -1.000000
vn 0.000000 0.000000 -1.000000
vn 0.000000 0.000000 0.000000
vn 0.000000 0.000000 0.000000
vn 0.000000 0.000000 0.000000
vn 0.000000 0.000000 0.000000
vn 0.000000 0.000000 0.000000
vn 0.000000 0.000000 0.000000
vn 0.000000 0.000000 0.000000
vn 0.000000 0.000000 0.000000
vn 0.000000 0.000000 0.000000
vn 0.000000 0.000000 0.000000
vn 0.000000 0.000000 0.000000
vn 0.000000 0.000000 0.000000
vn 0.000000 0.000000 0.000000
vn 0.000000 0.000000 0.000000
vn 0.000000 0.000000 0.000000
vn 0.000000 0.000000 0.000000
vn 0.000000 0.000000 0.000000
vn 0.000000 0.000000 0.000000
vn 0.000000 0.000000 0.000000
vn 0.000000 0.000000 0.000000
vn 0.000000 0.000000 0.000000
vn 0.000000 0.000000 0.000000
vn 0.000000 0.000000 0.000000
vn 0.000000 0.000000 0.000000
vn 0.000000 0.000000 0.000000
vn 0.000000 0.000000 0.000000
vn 0.000000 0.000000 0.000000
vn 0.000000 0.000000 0.000000
vn 0.000000 0.000000 0.000000
vn 0.000000 0.000000 0.000000
vn 0.000000 0.000000 0.000000
vn 0.000000 0.000000 0.000000
vn 0.000000 -1.000000 0.000000
vn 0.000000 -1.000000 0.000000
vn 0.000000 -1.000000 0.000000
vn 0.000000 -1.000000 0.000000
vn 1.000000 0.000000 0.000000
vn 1.000000 0.000000 0.000000
vn 1.000000 0.000000 0.000000
vn 1.000000 0.000000 0.000000
vn 0.000000 1.000000 -0.000000
vn 0.000000 1.000000 -0.000000
vn 0.000000 1.000000 -0.000000
vn 0.000000 1.000000 -0.000000
vn -1.000000 0.000000 -0.000000
vn -1.000000 0.000000 -0.000000
vn -1.000000 0.000000 -0.000000
vn -1.000000 0.000000 -0.000000
vn 0.947252 0.000000 -0.320491
vn 0.947252 0.000000 -0.320491
vn 0.947252 0.000000 -0.320491
vn 0.947252 0.000000 -0.320491
vn 0.000000 0.988172 -0.153349
vn 0.000000 0.988172 -0.153349
vn 0.000000 0.988172 -0.153349
vn 0.000000 0.988172 -0.153349
vn -0.947251 0.000000 -0.320491
vn -0.947251 0.000000 -0.320491
vn -0.947251 0.000000 -0.320491
vn -0.947251 0.000000 -0.320491
vn 0.000000 -0.968506 -0.248990
vn 0.000000 -0.968506 -0.248990
vn 0.000000 -0.968506 -0.248990
vn 0.000000 -0.968506 -0.248990
s off
g pCylinder1
usemtl initialShadingGroup
f 2/2/1 3/7/2 9/12/3 8/11/4
f 3/7/5 4/8/6 10/13/7 9/12/8
f 39/47/9 40/48/10 41/49/11 42/50/12
f 5/9/13 6/10/14 12/15/15 11/14/16
f 6/10/17 1/1/18 7/16/19 12/15/20
s 1
f 2/2/21 1/1/22 13/21/23
f 3/3/24 2/2/21 13/21/23
f 4/4/25 3/3/24 13/21/23
f 5/5/26 4/4/25 13/21/23
f 6/6/27 5/5/26 13/21/23
f 1/1/22 6/6/27 13/21/23
s 2
f 20/29/28 21/30/29 22/22/30
f 21/30/29 23/31/31 22/22/30
f 23/31/31 24/32/32 22/22/30
f 24/32/32 25/33/33 22/22/30
f 25/33/33 26/34/34 22/22/30
f 26/34/34 20/29/28 22/22/30
s off
f 7/16/35 8/11/36 15/24/37 14/23/38
f 8/11/39 9/19/40 16/25/41 15/24/42
f 9/19/43 10/18/44 17/26/45 16/25/46
f 10/18/47 11/17/48 18/27/49 17/26/50
f 11/17/51 12/20/52 19/28/53 18/27/54
f 12/20/55 7/16/56 14/23/57 19/28/58
f 15/24/59 16/25/60 23/31/61 21/30/62
f 16/25/63 17/26/64 24/32/65 23/31/66
f 43/51/67 44/52/68 45/53/69 46/54/70
f 18/27/71 19/28/72 26/34/73 25/33/74
f 19/28/75 14/23/76 20/29/77 26/34/78
s 3
f 4/8/79 5/9/80 28/36/81 27/35/82
f 5/9/80 11/14/83 29/37/84 28/36/81
f 11/14/83 10/13/85 30/38/86 29/37/84
f 10/13/85 4/8/79 27/35/82 30/38/86
s 4
f 14/23/87 15/24/88 32/40/89 31/39/90
f 15/24/88 21/30/91 33/41/92 32/40/89
f 21/30/91 20/29/93 34/42/94 33/41/92
f 20/29/93 14/23/87 31/39/90 34/42/94
s 5
f 17/26/95 18/27/96 36/44/97 35/43/98
f 18/27/96 25/33/99 37/45/100 36/44/97
f 25/33/99 24/32/101 38/46/102 37/45/100
f 24/32/101 17/26/95 35/43/98 38/46/102
s off
f 27/35/103 28/36/104 40/48/105 39/47/106
f 28/36/107 29/37/108 41/49/109 40/48/110
f 29/37/111 30/38/112 42/50/113 41/49/114
f 30/38/115 27/35/116 39/47/117 42/50/118
f 35/43/119 36/44/120 44/52/121 43/51/122
f 36/44/123 37/45/124 45/53/125 44/52/126
f 37/45/127 38/46/128 46/54/129 45/53/130
f 38/46/131 35/43/132 43/51/133 46/54/134
f 31/55/135 32/56/136 48/57/137 47/58/138
f 32/59/139 33/60/140 49/61/141 48/57/142
f 33/62/143 34/63/144 50/64/145 49/61/146
f 34/65/147 31/66/148 47/58/149 50/64/150
f 7/16/151 1/1/152 50/64/153 47/58/154
f 8/11/155 7/16/156 47/58/157 48/57/158
f 2/2/159 8/11/160 48/57/161 49/61/162
f 1/1/163 2/2/164 49/61/165 50/64/166
